<svg width="0" height="0" class="hidden">
  <symbol xmlns="http://www.w3.org/2000/svg" fill="currentColor" viewBox="0 0 16 16" id="delete">
    <path d="M4.646 4.646a.5.5 0 01.708 0L8 7.293l2.646-2.647a.5.5 0 01.708.708L8.707 8l2.647 2.646a.5.5 0 01-.708.708L8 8.707l-2.646 2.647a.5.5 0 01-.708-.708L7.293 8 4.646 5.354a.5.5 0 010-.708z"></path>
  </symbol>
  <symbol xmlns="http://www.w3.org/2000/svg" fill="currentColor" viewBox="0 0 16 16" id="eye">
    <path d="M10.5 8a2.5 2.5 0 11-5 0 2.5 2.5 0 015 0z"></path>
    <path d="M0 8s3-5.5 8-5.5S16 8 16 8s-3 5.5-8 5.5S0 8 0 8zm8 3.5a3.5 3.5 0 100-7 3.5 3.5 0 000 7z"></path>
  </symbol>
</svg>