<svg width="0" height="0" class="hidden">
  <symbol fill="none"
    xmlns="http://www.w3.org/2000/svg" viewBox="0 0 16 16" id="arrow">
    <path d="M2 5l6 6 6-6" stroke="#696867" stroke-width="2" stroke-linecap="round" stroke-linejoin="round"></path>
  </symbol>
  <symbol xmlns="http://www.w3.org/2000/svg" fill="currentColor" viewBox="0 0 16 16" id="cache">
    <path d="M7.765 1.559a.5.5 0 01.47 0l7.5 4a.5.5 0 010 .882l-7.5 4a.5.5 0 01-.47 0l-7.5-4a.5.5 0 010-.882l7.5-4z"></path>
    <path d="M2.125 8.567l-1.86.992a.5.5 0 000 .882l7.5 4a.5.5 0 00.47 0l7.5-4a.5.5 0 000-.882l-1.86-.992-5.17 2.756a1.5 1.5 0 01-1.41 0l-5.17-2.756z"></path>
  </symbol>
  <symbol xmlns="http://www.w3.org/2000/svg" fill="currentColor" viewBox="0 0 16 16" id="cart">
    <path d="M5.757 1.071a.5.5 0 01.172.686L3.383 6h9.234L10.07 1.757a.5.5 0 11.858-.514L13.783 6H15.5a.5.5 0 01.5.5v1a.5.5 0 01-.5.5H.5a.5.5 0 01-.5-.5v-1A.5.5 0 01.5 6h1.717L5.07 1.243a.5.5 0 01.686-.172zM2.468 15.426L.943 9h14.114l-1.525 6.426a.75.75 0 01-.729.574H3.197a.75.75 0 01-.73-.574z"></path>
  </symbol>
  <symbol xmlns="http://www.w3.org/2000/svg" fill="currentColor" viewBox="0 0 16 16" id="currencies">
    <g clip-path="url(#clip0)">
      <path d="M10.225 7.268c-.628-.347-1.295-.612-1.956-.886-.383-.159-.75-.344-1.074-.601-.638-.51-.516-1.335.231-1.663.212-.092.433-.122.658-.135a4.991 4.991 0 012.472.489c.39.188.519.129.65-.278.14-.43.255-.865.384-1.298.086-.291-.02-.483-.294-.605a6.284 6.284 0 00-1.56-.466c-.707-.109-.707-.112-.71-.823C9.022.001 9.022.001 8.018.001c-.146 0-.291-.003-.436 0-.47.013-.549.096-.562.568-.007.212 0 .423-.003.638-.004.628-.007.618-.609.836-1.454.529-2.352 1.52-2.448 3.106-.086 1.405.647 2.353 1.8 3.044.711.426 1.498.677 2.251 1.011.294.129.575.278.82.483.723.598.591 1.592-.268 1.97-.46.2-.945.25-1.444.187-.77-.095-1.507-.297-2.2-.657-.407-.212-.526-.155-.665.284-.119.38-.225.763-.33 1.147-.143.515-.09.637.403.879.627.304 1.298.459 1.982.568.536.086.552.11.559.664.003.251.003.506.006.757.004.317.156.502.483.509.37.007.743.007 1.113-.003.305-.007.46-.172.46-.48 0-.343.016-.69.003-1.034-.016-.35.136-.529.473-.621a3.735 3.735 0 001.946-1.25c1.414-1.718.876-4.232-1.127-5.34z"></path>
    </g>
    <defs>
      <clipPath id="clip0">
        <path d="M0 0h16v16H0z"></path>
      </clipPath>
    </defs>
  </symbol>
  <symbol xmlns="http://www.w3.org/2000/svg" fill="currentColor" viewBox="0 0 16 16" id="filters">
    <path d="M1.5 1.5A.5.5 0 012 1h12a.5.5 0 01.5.5v2a.5.5 0 01-.1.3L10 8.7v4.8a.5.5 0 01-.3.5l-3 1a.5.5 0 01-.7-.5V8.7L1.6 3.8a.5.5 0 01-.1-.3v-2z"></path>
  </symbol>
  <symbol xmlns="http://www.w3.org/2000/svg" fill="none" viewBox="0 0 16 16" id="product">
    <defs/>
    <g clip-path="url(#clip0)">
      <path fill="currentColor" d="M8.19 1.11a.5.5 0 00-.38 0L1.85 3.5l2.4.96L10.4 2l-2.2-.89h-.01zm3.56 1.43L5.6 5l2.4.96 6.15-2.46-2.4-.96zM15 4.24l-6.5 2.6v7.92l6.5-2.6V4.24zM7.44.18a1.5 1.5 0 011.12 0l7.13 2.86a.5.5 0 01.31.46v8.66a1 1 0 01-.63.93L8.2 15.96a.5.5 0 01-.38 0L.63 13.1a1 1 0 01-.63-.93V3.5a.5.5 0 01.31-.46L7.44.18z"/>
    </g>
    <defs>
      <clipPath id="clip0">
        <path fill="#fff" d="M0 0h16v16H0z"/>
      </clipPath>
    </defs>
  </symbol>
  <symbol xmlns="http://www.w3.org/2000/svg" fill="currentColor" viewBox="0 0 16 16" id="home">
    <path fill-rule="evenodd" d="M8 3.293l6 6V13.5a1.5 1.5 0 01-1.5 1.5h-9A1.5 1.5 0 012 13.5V9.293l6-6zm5-.793V6l-2-2V2.5a.5.5 0 01.5-.5h1a.5.5 0 01.5.5z"></path>
    <path fill-rule="evenodd" d="M7.293 1.5a1 1 0 011.414 0l6.647 6.646a.5.5 0 01-.708.708L8 2.207 1.354 8.854a.5.5 0 11-.708-.708L7.293 1.5z"></path>
  </symbol>
  <symbol xmlns="http://www.w3.org/2000/svg" fill="currentColor" viewBox="0 0 16 16" id="menu">
    <path d="M7 14s-1 0-1-1 1-4 5-4 5 3 5 4-1 1-1 1H7zm4-6a3 3 0 100-6 3 3 0 000 6z"></path>
    <path fill-rule="evenodd" d="M5.216 14A2.238 2.238 0 015 13c0-1.355.68-2.75 1.936-3.72A6.325 6.325 0 005 9c-4 0-5 3-5 4s1 1 1 1h4.216z"></path>
    <path d="M4.5 8a2.5 2.5 0 100-5 2.5 2.5 0 000 5z"></path>
  </symbol>
  <symbol xmlns="http://www.w3.org/2000/svg" fill="currentColor" viewBox="0 0 16 16" id="users">
    <path d="M7 14s-1 0-1-1 1-4 5-4 5 3 5 4-1 1-1 1H7zm4-6a3 3 0 1 0 0-6 3 3 0 0 0 0 6z"/>
    <path fill-rule="evenodd" d="M5.216 14A2.238 2.238 0 0 1 5 13c0-1.355.68-2.75 1.936-3.72A6.325 6.325 0 0 0 5 9c-4 0-5 3-5 4s1 1 1 1h4.216z"/>
    <path d="M4.5 8a2.5 2.5 0 1 0 0-5 2.5 2.5 0 0 0 0 5z"/>
  </symbol>
</svg>